<svg xmlns="http://www.w3.org/2000/svg"  viewBox="0 0 100 100" width="500px" height="500px"><path fill="#c7ede6" d="M87.215,56.71C88.35,54.555,89,52.105,89,49.5c0-6.621-4.159-12.257-10.001-14.478 C78.999,35.015,79,35.008,79,35c0-11.598-9.402-21-21-21c-9.784,0-17.981,6.701-20.313,15.757C36.211,29.272,34.638,29,33,29 c-7.692,0-14.023,5.793-14.89,13.252C12.906,43.353,9,47.969,9,53.5C9,59.851,14.149,65,20.5,65c0.177,0,0.352-0.012,0.526-0.022 C21.022,65.153,21,65.324,21,65.5C21,76.822,30.178,86,41.5,86c6.437,0,12.175-2.972,15.934-7.614C59.612,80.611,62.64,82,66,82 c4.65,0,8.674-2.65,10.666-6.518C77.718,75.817,78.837,76,80,76c6.075,0,11-4.925,11-11C91,61.689,89.53,58.727,87.215,56.71z"/><path fill="#fff" d="M16.405,48H6.5C6.224,48,6,47.776,6,47.5S6.224,47,6.5,47h9.905c0.276,0,0.5,0.224,0.5,0.5 S16.682,48,16.405,48z"/><path fill="#fff" d="M19.5,48h-1c-0.276,0-0.5-0.224-0.5-0.5s0.224-0.5,0.5-0.5h1c0.276,0,0.5,0.224,0.5,0.5 S19.777,48,19.5,48z"/><path fill="#fff" d="M24.491,50H15.5c-0.276,0-0.5-0.224-0.5-0.5s0.224-0.5,0.5-0.5h8.991c0.276,0,0.5,0.224,0.5,0.5 S24.767,50,24.491,50z"/><path fill="#fff" d="M13.5,50h-1c-0.276,0-0.5-0.224-0.5-0.5s0.224-0.5,0.5-0.5h1c0.276,0,0.5,0.224,0.5,0.5 S13.777,50,13.5,50z"/><path fill="#fff" d="M10.5,50h-2C8.224,50,8,49.776,8,49.5S8.224,49,8.5,49h2c0.276,0,0.5,0.224,0.5,0.5 S10.777,50,10.5,50z"/><path fill="#fff" d="M16.5,52h-2c-0.276,0-0.5-0.224-0.5-0.5s0.224-0.5,0.5-0.5h2c0.276,0,0.5,0.224,0.5,0.5 S16.776,52,16.5,52z"/><path fill="#fff" d="M19.5,43c-0.177,0-0.823,0-1,0c-0.276,0-0.5,0.224-0.5,0.5s0.224,0.5,0.5,0.5c0.177,0,0.823,0,1,0 c0.276,0,0.5-0.224,0.5-0.5S19.776,43,19.5,43z"/><path fill="#fff" d="M19.5,45c-0.177,0-4.823,0-5,0c-0.276,0-0.5,0.224-0.5,0.5s0.224,0.5,0.5,0.5c0.177,0,4.823,0,5,0 c0.276,0,0.5-0.224,0.5-0.5S19.776,45,19.5,45z"/><path fill="#fff" d="M24.5,47c-0.177,0-2.823,0-3,0c-0.276,0-0.5,0.224-0.5,0.5s0.224,0.5,0.5,0.5c0.177,0,2.823,0,3,0 c0.276,0,0.5-0.224,0.5-0.5S24.776,47,24.5,47z"/><g><path fill="#fff" d="M87.5,55h-10c-0.276,0-0.5-0.224-0.5-0.5s0.224-0.5,0.5-0.5h10c0.276,0,0.5,0.224,0.5,0.5 S87.776,55,87.5,55z"/><path fill="#fff" d="M91.5,55h-2c-0.276,0-0.5-0.224-0.5-0.5s0.224-0.5,0.5-0.5h2c0.276,0,0.5,0.224,0.5,0.5 S91.776,55,91.5,55z"/><path fill="#fff" d="M96.5,57h-10c-0.276,0-0.5-0.224-0.5-0.5s0.224-0.5,0.5-0.5h10c0.276,0,0.5,0.224,0.5,0.5 S96.777,57,96.5,57z"/><path fill="#fff" d="M84.5,57h-1c-0.276,0-0.5-0.224-0.5-0.5s0.224-0.5,0.5-0.5h1c0.276,0,0.5,0.224,0.5,0.5 S84.776,57,84.5,57z"/><path fill="#fff" d="M81.375,57H79.5c-0.276,0-0.5-0.224-0.5-0.5s0.224-0.5,0.5-0.5h1.875c0.276,0,0.5,0.224,0.5,0.5 S81.651,57,81.375,57z"/><path fill="#fff" d="M90.5,53h-5c-0.276,0-0.5-0.224-0.5-0.5s0.224-0.5,0.5-0.5h5c0.276,0,0.5,0.224,0.5,0.5 S90.777,53,90.5,53z"/><path fill="#fff" d="M87.5,59h-2c-0.276,0-0.5-0.224-0.5-0.5s0.224-0.5,0.5-0.5h2c0.276,0,0.5,0.224,0.5,0.5 S87.776,59,87.5,59z"/></g><g><path fill="#fdfcef" d="M25.375,31h7v-0.5c0,0,5.567,0,7.5,0s3.5-1.567,3.5-3.5s-1.567-3.5-3.5-3.5 c-0.187,0-0.366,0.027-0.545,0.055c-0.21-1.168-1.227-2.055-2.455-2.055c-0.591,0-1.128,0.214-1.556,0.558 c0.026-0.184,0.056-0.367,0.056-0.558c0-2.209-1.791-4-4-4c-1.923,0-3.526,1.357-3.91,3.165c-0.64-0.71-1.558-1.165-2.59-1.165 c-1.933,0-3.5,1.567-3.5,3.5c0,0.187,0.027,0.366,0.055,0.545c-1.72,0.221-3.055,1.674-3.055,3.455c0,1.933,1.567,3.5,3.5,3.5 s3.5,0,3.5,0V31z"/><path fill="#472b29" d="M23.375,25.75c0-0.947-0.771-1.718-1.719-1.718c-0.013-0.002-0.669-0.002-1.113,0.118 c-0.133,0.037-0.27-0.042-0.306-0.176c-0.036-0.133,0.043-0.27,0.176-0.306c0.507-0.137,1.21-0.127,1.244-0.136 c1.223,0,2.218,0.995,2.218,2.218c0,0.138-0.112,0.25-0.25,0.25S23.375,25.888,23.375,25.75z"/><circle cx="30.375" cy="30.5" r=".5" fill="#472b29"/><path fill="#472b29" d="M17.875,27c0-1.831,1.261-3.41,3.004-3.858c-0.003-0.047-0.004-0.094-0.004-0.142 c0-2.206,1.794-4,4-4c0.845,0,1.667,0.276,2.347,0.774C27.909,18.127,29.544,17,31.375,17c2.374,0,4.324,1.847,4.489,4.18 c0.322-0.119,0.662-0.18,1.011-0.18c1.289,0,2.412,0.82,2.826,2.006C39.759,23.002,39.816,23,39.875,23c2.206,0,4,1.794,4,4 s-1.794,4-4,4h-7.5c-0.276,0-0.5-0.224-0.5-0.5s0.224-0.5,0.5-0.5h7.5c1.654,0,3-1.346,3-3s-1.346-3-3-3 c-0.16,0-0.314,0.025-0.468,0.049c-0.273,0.041-0.521-0.138-0.569-0.405C38.667,22.691,37.841,22,36.875,22 c-0.449,0-0.878,0.155-1.243,0.448c-0.16,0.128-0.377,0.112-0.556,0.01c-0.179-0.102-0.271-0.337-0.242-0.54 c0.02-0.138,0.041-0.275,0.041-0.418c0-1.93-1.57-3.5-3.5-3.5c-1.641,0-3.08,1.165-3.422,2.769 c-0.039,0.184-0.178,0.33-0.36,0.379c-0.179,0.05-0.375-0.009-0.5-0.148c-0.581-0.645-1.369-1-2.219-1c-1.654,0-3,1.346-3,3 c0,0.16,0.025,0.315,0.049,0.468c0.021,0.133-0.013,0.269-0.094,0.377s-0.202,0.178-0.336,0.196 C20,24.232,18.875,25.504,18.875,27c0,1.654,1.346,3,3,3h3.5c0.276,0,0.5,0.224,0.5,0.5s-0.224,0.5-0.5,0.5h-3.5 C19.669,31,17.875,29.206,17.875,27z"/><path fill="#472b29" d="M26.875,30.5c0,0.276,0.224,0.5,0.5,0.5c0.159,0,0.841,0,1,0c0.276,0,0.5-0.224,0.5-0.5 s-0.224-0.5-0.5-0.5c-0.159,0-0.841,0-1,0C27.099,30,26.875,30.224,26.875,30.5z"/></g><g><path fill="#fdfcef" d="M69,87h3v-0.5h5.375c0,0,7.015,0,9.5,0s4.5-2.015,4.5-4.5s-2.015-4.5-4.5-4.5 c-0.187,0-0.364,0.033-0.545,0.055c-0.221-1.72-1.674-3.055-3.455-3.055c-1.087,0-2.045,0.505-2.687,1.282 c0.11-0.412,0.187-0.836,0.187-1.282c0-2.761-2.239-5-5-5c-2.671,0-4.833,2.1-4.973,4.736c-0.824-1.05-2.089-1.736-3.527-1.736 c-2.485,0-4.5,2.015-4.5,4.5c0,0.187,0.033,0.364,0.055,0.545c-2.273,0.226-4.055,2.122-4.055,4.455c0,2.485,2.015,4.5,4.5,4.5 s6.125,0,6.125,0V87z"/><path fill="#472b29" d="M75.375,69c-2.555,0-4.719,1.76-5.317,4.164C69.168,72.416,68.051,72,66.875,72 c-2.757,0-5,2.243-5,5c0,0.041,0.001,0.082,0.003,0.123c-2.314,0.464-4.003,2.48-4.003,4.877c0,2.757,2.243,5,5,5H69 c0.276,0,0.5-0.224,0.5-0.5S69.276,86,69,86h-6.124c-2.206,0-4-1.794-4-4c0-2.052,1.549-3.753,3.604-3.958 c0.133-0.013,0.256-0.08,0.34-0.185c0.084-0.105,0.122-0.239,0.106-0.373l-0.019-0.141c-0.015-0.113-0.032-0.226-0.032-0.343 c0-2.206,1.794-4,4-4c1.221,0,2.362,0.563,3.134,1.545c0.096,0.123,0.242,0.192,0.392,0.192c0.051,0,0.102-0.008,0.152-0.024 c0.199-0.063,0.338-0.242,0.349-0.45C71.029,71.872,72.995,70,75.376,70c2.481,0,4.5,2.019,4.5,4.5 c0,0.351-0.054,0.717-0.17,1.153c-0.06,0.227,0.045,0.466,0.254,0.573c0.072,0.038,0.15,0.056,0.228,0.056 c0.145,0,0.288-0.064,0.386-0.182c0.578-0.699,1.416-1.1,2.301-1.1c1.496,0,2.768,1.125,2.959,2.618 c0.033,0.252,0.249,0.437,0.495,0.437c0.021,0,0.041-0.001,0.062-0.004l0.141-0.019C86.645,78.017,86.758,78,86.875,78 c2.206,0,4,1.794,4,4s-1.794,4-4,4H72c-0.276,0-0.5,0.224-0.5,0.5S71.724,87,72,87h14.875c2.757,0,5-2.243,5-5 c0-2.757-2.243-5-5-5c-0.048,0-0.095,0.002-0.142,0.005C86.286,75.261,84.706,74,82.875,74c-0.71,0-1.398,0.193-2,0.547 c0-0.016,0-0.031,0-0.047C80.875,71.467,78.408,69,75.375,69L75.375,69z"/><path fill="#472b29" d="M76.875,76c-0.256,0-0.517,0.04-0.817,0.125c-0.133,0.038-0.21,0.176-0.172,0.309 c0.032,0.109,0.13,0.182,0.239,0.182c0.023,0,0.047-0.003,0.07-0.01c0.257-0.073,0.474-0.107,0.682-0.107 c1.288,0,2.377,1.013,2.479,2.305c0.007,0.095,0.067,0.177,0.155,0.212c0.03,0.013,0.061,0.019,0.093,0.019 c0.059,0,0.118-0.022,0.165-0.063c0.346-0.305,0.784-0.473,1.231-0.473c1.034,0,1.875,0.841,1.875,1.875 c0,0.08,0.038,0.162,0.102,0.209c0.046,0.034,0.101,0.054,0.156,0.054c0.022,0,0.045-0.003,0.067-0.01 c0.268-0.085,0.509-0.127,0.738-0.127c1.268,0,2.33,0.997,2.419,2.268C86.366,82.899,86.476,83,86.606,83 c0.006,0,0.012,0,0.018,0c0.137-0.01,0.241-0.13,0.232-0.268C86.749,81.2,85.467,80,83.938,80c-0.189,0-0.382,0.022-0.585,0.068 C83.198,78.897,82.202,78,81,78c-0.426,0-0.845,0.119-1.212,0.341C79.484,76.999,78.278,76,76.875,76L76.875,76z"/><path fill="#472b29" d="M62.992,77.5c-0.139,0-0.275,0.016-0.409,0.034c-0.137,0.018-0.233,0.144-0.214,0.281 c0.017,0.125,0.125,0.217,0.246,0.217c0.012,0,0.023-0.001,0.035-0.003C62.762,78.014,62.875,78,62.992,78 c1.104,0,2.088,0.748,2.393,1.818c0.031,0.11,0.131,0.182,0.24,0.182c0.022,0,0.045-0.003,0.069-0.009 c0.133-0.038,0.21-0.176,0.172-0.309C65.5,78.397,64.318,77.5,62.992,77.5L62.992,77.5z"/></g><g><path fill="#ee3e54" d="M47.577,74.3c-0.274,0-0.511-0.205-0.55-0.477l-0.884-6.187l-0.365-0.154 c-1.375-0.579-2.7-1.364-3.939-2.333l-0.312-0.245l-5.854,2.251c-0.064,0.024-0.131,0.037-0.199,0.037 c-0.202,0-0.387-0.109-0.485-0.285l-4.797-8.599c-0.134-0.24-0.07-0.546,0.148-0.712l4.98-3.792l-0.043-0.393 c-0.074-0.678-0.11-1.303-0.11-1.912s0.036-1.234,0.11-1.912l0.043-0.393l-4.98-3.792c-0.218-0.166-0.282-0.472-0.148-0.712 l4.797-8.599c0.098-0.175,0.284-0.285,0.485-0.285c0.067,0,0.134,0.013,0.199,0.037l5.854,2.251l0.312-0.245 c1.239-0.969,2.565-1.754,3.939-2.333l0.365-0.154l0.884-6.187c0.039-0.272,0.275-0.477,0.55-0.477h9.846 c0.274,0,0.511,0.205,0.55,0.477l0.884,6.187l0.365,0.154c1.376,0.58,2.702,1.365,3.939,2.333l0.312,0.245l5.854-2.251 c0.064-0.024,0.131-0.037,0.199-0.037c0.201,0,0.388,0.109,0.485,0.285l4.797,8.598c0.134,0.24,0.07,0.546-0.148,0.712 l-4.979,3.792l0.042,0.393c0.075,0.686,0.111,1.312,0.111,1.912s-0.036,1.226-0.111,1.912l-0.042,0.393l4.979,3.792 c0.219,0.166,0.282,0.472,0.148,0.711l-4.797,8.599c-0.098,0.175-0.284,0.285-0.485,0.285l0,0c-0.068,0-0.135-0.013-0.199-0.037 l-5.854-2.251l-0.312,0.245c-1.237,0.969-2.563,1.754-3.939,2.333l-0.365,0.154l-0.884,6.187c-0.039,0.271-0.275,0.477-0.55,0.477 H47.577z"/><path fill="#472b29" d="M57.297,29.4l0.81,5.671l0.112,0.785l0.73,0.308c1.318,0.555,2.59,1.309,3.78,2.24l0.625,0.489 l0.74-0.285l5.368-2.063l4.675,8.379l-4.565,3.476l-0.63,0.48l0.086,0.787c0.072,0.654,0.107,1.254,0.107,1.835 s-0.035,1.181-0.107,1.835l-0.086,0.787l0.63,0.48l4.565,3.476l-4.675,8.379l-5.368-2.063l-0.74-0.285l-0.625,0.489 c-1.19,0.931-2.462,1.684-3.78,2.24l-0.73,0.308l-0.112,0.785l-0.81,5.671h-9.595l-0.81-5.671l-0.112-0.785l-0.73-0.308 c-1.318-0.555-2.59-1.309-3.78-2.24l-0.625-0.489l-0.74,0.285l-5.367,2.063l-4.675-8.379l4.565-3.476l0.63-0.48l-0.086-0.787 c-0.072-0.654-0.107-1.254-0.107-1.835s0.035-1.181,0.107-1.835l0.086-0.787l-0.63-0.48l-4.565-3.476l4.675-8.379l5.367,2.063 l0.74,0.285l0.625-0.489c1.19-0.931,2.462-1.684,3.78-2.24l0.73-0.308l0.112-0.785l0.81-5.671H57.297 M57.423,28h-9.846 c-0.625,0-1.154,0.459-1.243,1.078l-0.828,5.795c-1.481,0.624-2.851,1.451-4.099,2.427l-5.485-2.108 c-0.147-0.057-0.3-0.084-0.45-0.084c-0.444,0-0.869,0.236-1.096,0.644l-4.797,8.598c-0.304,0.545-0.161,1.232,0.336,1.61 l4.665,3.552c-0.072,0.653-0.115,1.315-0.115,1.988s0.043,1.334,0.115,1.988l-4.665,3.552c-0.497,0.378-0.64,1.065-0.336,1.61 l4.797,8.598c0.227,0.408,0.653,0.644,1.096,0.644c0.15,0,0.303-0.027,0.45-0.084l5.485-2.108 c1.248,0.976,2.618,1.804,4.099,2.427l0.828,5.795C46.423,74.541,46.952,75,47.577,75h9.846c0.625,0,1.154-0.459,1.243-1.078 l0.828-5.795c1.481-0.624,2.851-1.451,4.099-2.427l5.485,2.108c0.147,0.057,0.3,0.084,0.45,0.084c0.444,0,0.869-0.236,1.096-0.644 l4.797-8.598c0.304-0.545,0.161-1.232-0.336-1.61l-4.665-3.552c0.072-0.653,0.115-1.315,0.115-1.988s-0.043-1.334-0.115-1.988 l4.665-3.552c0.497-0.378,0.64-1.065,0.336-1.61l-4.797-8.598c-0.227-0.408-0.653-0.644-1.096-0.644 c-0.15,0-0.303,0.027-0.45,0.084L63.593,37.3c-1.248-0.976-2.618-1.804-4.099-2.427l-0.828-5.795 C58.577,28.459,58.048,28,57.423,28L57.423,28z"/></g><g><polygon fill="#fdfcef" points="59.428,51.902 48,44.804 48,59"/><path fill="#472b29" d="M48,59.5c-0.083,0-0.167-0.021-0.243-0.063C47.598,59.349,47.5,59.182,47.5,59V44.804 c0-0.182,0.098-0.349,0.257-0.437c0.159-0.088,0.353-0.083,0.507,0.012l11.428,7.098c0.147,0.091,0.236,0.252,0.236,0.425 s-0.089,0.333-0.236,0.425l-11.428,7.098C48.183,59.475,48.092,59.5,48,59.5z M48.5,45.703v12.398l9.98-6.199L48.5,45.703z"/></g><g><path fill="#472b29" d="M52.5,65.75c-7.857,0-14.25-6.393-14.25-14.25c0-1.416,0.207-2.813,0.615-4.153 c0.04-0.132,0.178-0.206,0.312-0.167c0.132,0.041,0.207,0.18,0.167,0.312c-0.394,1.293-0.593,2.641-0.593,4.007 c0,7.582,6.168,13.75,13.75,13.75c4.383,0,8.402-2.018,11.027-5.535c0.082-0.11,0.239-0.134,0.35-0.051 c0.11,0.083,0.134,0.239,0.051,0.35C61.207,63.659,57.042,65.75,52.5,65.75z M65.59,56.726c-0.029,0-0.06-0.005-0.089-0.016 c-0.129-0.049-0.194-0.194-0.145-0.323c0.593-1.56,0.894-3.205,0.894-4.887c0-7.582-6.168-13.75-13.75-13.75 c-2.537,0-5.015,0.696-7.167,2.013c-0.116,0.072-0.271,0.036-0.344-0.083c-0.072-0.118-0.035-0.271,0.083-0.344 c2.23-1.365,4.799-2.086,7.428-2.086c7.857,0,14.25,6.393,14.25,14.25c0,1.744-0.312,3.448-0.927,5.065 C65.785,56.665,65.69,56.726,65.59,56.726z M40.465,44.593c-0.044,0-0.088-0.011-0.128-0.035c-0.119-0.071-0.158-0.224-0.087-0.343 c0.605-1.015,1.336-1.954,2.174-2.792c0.098-0.098,0.256-0.098,0.354,0s0.098,0.256,0,0.354c-0.809,0.809-1.514,1.715-2.098,2.694 C40.633,44.55,40.55,44.593,40.465,44.593z"/></g></svg>